<svg width="24" height="24" viewBox="0 0 24 24" fill="none" xmlns="http://www.w3.org/2000/svg">
<path d="M22.6112 6.48022L20.2627 5.72593C20.1048 5.67669 19.9354 5.67834 19.7785 5.73064C19.6216 5.78293 19.4851 5.88324 19.3884 6.01736L17.7769 8.57164L8.93122 4.16593C8.23374 3.7569 7.45535 3.50508 6.65045 3.42808C5.84555 3.35107 5.03354 3.45074 4.27115 3.7201C3.50876 3.98947 2.81438 4.42204 2.23651 4.98761C1.65864 5.55317 1.21122 6.23809 0.92551 6.9945C0.807623 7.37641 0.846116 7.7895 1.03254 8.14306C1.21896 8.49661 1.53807 8.76174 1.9198 8.88021L7.73122 10.7659L8.31408 10.9545L9.41122 14.7088C9.44457 14.8385 9.5111 14.9573 9.60428 15.0535C9.69746 15.1496 9.81408 15.2199 9.94265 15.2574L12.5827 16.1145C12.7212 16.1744 12.8735 16.195 13.023 16.1741C13.1725 16.1532 13.3133 16.0916 13.4301 15.996C13.5469 15.9004 13.6352 15.7746 13.6853 15.6322C13.7354 15.4898 13.7453 15.3364 13.7141 15.1888L13.1655 12.5145L13.5427 12.6345L19.2169 14.4688C19.4003 14.5368 19.5953 14.5676 19.7907 14.5595C19.9861 14.5514 20.178 14.5045 20.355 14.4216C20.5321 14.3386 20.691 14.2212 20.8222 14.0763C20.9535 13.9314 21.0547 13.7618 21.1198 13.5774L23.1084 7.40593C23.1621 7.21728 23.1403 7.01509 23.0475 6.84227C22.9547 6.66944 22.7982 6.53958 22.6112 6.48022V6.48022Z" stroke="black" stroke-linecap="round" stroke-linejoin="round"/>
<path d="M0.856934 23.1431H23.1426" stroke="black" stroke-linecap="round" stroke-linejoin="round"/>
</svg>
