<svg width="24" height="24" viewBox="0 0 24 24" fill="none" xmlns="http://www.w3.org/2000/svg">
<path d="M19.7141 0.856934H4.28557C3.3388 0.856934 2.57129 1.62445 2.57129 2.57122V18.8569C2.57129 19.8037 3.3388 20.5712 4.28557 20.5712H19.7141C20.6609 20.5712 21.4284 19.8037 21.4284 18.8569V2.57122C21.4284 1.62445 20.6609 0.856934 19.7141 0.856934Z" stroke="black" stroke-linecap="round" stroke-linejoin="round"/>
<path d="M6 20.5713V23.1427" stroke="black" stroke-linecap="round" stroke-linejoin="round"/>
<path d="M18 20.5713V23.1427" stroke="black" stroke-linecap="round" stroke-linejoin="round"/>
<path d="M2.57129 12H21.4284" stroke="black" stroke-linecap="round" stroke-linejoin="round"/>
<path d="M6.85714 17.1425C7.33053 17.1425 7.71429 16.7588 7.71429 16.2854C7.71429 15.812 7.33053 15.4282 6.85714 15.4282C6.38376 15.4282 6 15.812 6 16.2854C6 16.7588 6.38376 17.1425 6.85714 17.1425Z" stroke="black" stroke-linecap="round" stroke-linejoin="round"/>
<path d="M17.1428 17.1425C17.6162 17.1425 17.9999 16.7588 17.9999 16.2854C17.9999 15.812 17.6162 15.4282 17.1428 15.4282C16.6694 15.4282 16.2856 15.812 16.2856 16.2854C16.2856 16.7588 16.6694 17.1425 17.1428 17.1425Z" stroke="black" stroke-linecap="round" stroke-linejoin="round"/>
</svg>
