<svg width="24" height="24" viewBox="0 0 24 24" fill="none" xmlns="http://www.w3.org/2000/svg">
<g clip-path="url(#clip0_4589_13608)">
<path d="M9.97394 18.8435L13.7145 22.5789C13.9467 22.8111 14.2344 22.9802 14.5503 23.0699C14.8662 23.1597 15.1998 23.1672 15.5194 23.0918C15.839 23.0164 16.1341 22.8606 16.3765 22.6391C16.619 22.4176 16.8009 22.1379 16.9048 21.8264L23.0437 3.39265C23.157 3.05333 23.1736 2.68914 23.0915 2.34092C23.0095 1.99271 22.832 1.67425 22.579 1.42128C22.326 1.16831 22.0076 0.990836 21.6594 0.908764C21.3112 0.826693 20.947 0.843274 20.6077 0.956648L2.17394 7.10065C1.86341 7.20499 1.58462 7.38679 1.36389 7.62885C1.14317 7.87092 0.9878 8.16526 0.912472 8.48407C0.837145 8.80288 0.844343 9.13564 0.933388 9.45089C1.02243 9.76615 1.19038 10.0535 1.42137 10.2858L6.12023 14.9898L5.9608 20.9298L9.97394 18.8435Z" stroke="#14142B" stroke-linecap="round" stroke-linejoin="round"/>
<path d="M22.4933 1.34033L6.12012 14.9895" stroke="#14142B" stroke-linecap="round" stroke-linejoin="round"/>
</g>
<defs>
<clipPath id="clip0_4589_13608">
<rect width="24" height="24" fill="white"/>
</clipPath>
</defs>
</svg>
