<svg width="24" height="24" viewBox="0 0 24 24" fill="none" xmlns="http://www.w3.org/2000/svg">
<g clip-path="url(#clip0_4589_13623)">
<path d="M20.5712 12.8572V9.42864C20.5712 8.97398 20.3906 8.53795 20.0691 8.21646C19.7476 7.89497 19.3116 7.71436 18.8569 7.71436H2.57122C2.11656 7.71436 1.68053 7.89497 1.35904 8.21646C1.03755 8.53795 0.856934 8.97398 0.856934 9.42864V21.4286C0.856934 21.8833 1.03755 22.3193 1.35904 22.6408C1.68053 22.9623 2.11656 23.1429 2.57122 23.1429H18.8569C19.3116 23.1429 19.7476 22.9623 20.0691 22.6408C20.3906 22.3193 20.5712 21.8833 20.5712 21.4286V17.1429" stroke="black" stroke-linecap="round" stroke-linejoin="round"/>
<path d="M6.58252 3.42849L16.3025 0.891343C16.4117 0.860569 16.5261 0.852244 16.6386 0.866871C16.7511 0.881498 16.8595 0.918774 16.9573 0.976449C17.055 1.03412 17.14 1.111 17.2072 1.20244C17.2744 1.29388 17.3224 1.39799 17.3482 1.50849L17.8282 3.42849" stroke="black" stroke-linecap="round" stroke-linejoin="round"/>
<path d="M22.2854 12.8569H17.9997C17.5263 12.8569 17.1426 13.2407 17.1426 13.7141V16.2855C17.1426 16.7589 17.5263 17.1426 17.9997 17.1426H22.2854C22.7588 17.1426 23.1426 16.7589 23.1426 16.2855V13.7141C23.1426 13.2407 22.7588 12.8569 22.2854 12.8569Z" stroke="black" stroke-linecap="round" stroke-linejoin="round"/>
</g>
<defs>
<clipPath id="clip0_4589_13623">
<rect width="24" height="24" fill="white"/>
</clipPath>
</defs>
</svg>
