<svg width="159" height="159" viewBox="0 0 159 159" fill="none" xmlns="http://www.w3.org/2000/svg">
<path d="M66.78 62.0097C62.2644 55.92 55.0458 51.1341 46.6904 50.5617C44.0928 50.3334 41.476 50.4672 38.9153 50.9592C25.9409 53.4635 17.4503 64.7684 16.6553 74.3879C18.6587 76.4628 18.9767 79.9529 17.9034 82.8308C17.7053 83.407 17.4095 83.9449 17.0289 84.4208C17.0371 84.5488 17.053 84.6763 17.0766 84.8024C17.498 87.4418 19.8989 91.9574 19.9704 92.1402C21.6809 93.2974 23.2662 94.6296 24.7007 96.1152C27.0141 98.5002 27.5786 100.209 27.6978 100.623C27.6941 100.639 27.6941 100.655 27.6978 100.671V100.671C27.9681 100.877 28.2464 101.092 28.5485 101.299C31.0825 102.849 33.9273 103.82 36.8801 104.145C39.3446 103.978 44.2259 103.7 46.6904 103.827C48.4544 103.872 50.1939 104.25 51.8181 104.94C52.8232 104.698 53.8111 104.39 54.7755 104.018C71.8442 97.3952 76.9163 75.6837 66.78 62.0097ZM44.202 101.815C39.5387 101.814 34.9806 100.43 31.104 97.8376C27.2274 95.2457 24.2064 91.5625 22.4229 87.2537C20.6394 82.945 20.1736 78.2041 21.0843 73.6306C21.995 69.0571 24.2414 64.8564 27.5394 61.5595C30.8374 58.2626 35.0389 56.0177 39.6127 55.1085C44.1865 54.1993 48.9272 54.6667 53.2354 56.4516C57.5435 58.2366 61.2257 61.2588 63.8163 65.1363C66.4069 69.0138 67.7897 73.5724 67.7897 78.2357C67.7897 84.488 65.3065 90.4844 60.8862 94.9062C56.4658 99.3281 50.4703 101.813 44.2179 101.815H44.202Z" fill="#1CC8EE"/>
<path d="M109.71 114.639C109.71 114.639 108.382 109.869 109.535 92.5459C110.616 76.0815 112.095 67.408 112.095 67.408C112.095 67.408 107.993 66.9628 103.032 61.1593C98.0711 55.3558 94.5253 50.8243 88.38 47.5887C82.2346 44.353 77.5839 41.5387 74.07 38.2474C70.1983 34.654 64.7446 29.8522 59.8156 29.6137C54.8866 29.3752 54.8549 31.1242 49.5681 32.8812C44.2814 34.6381 32.6744 35.6478 32.1338 37.1821C31.5932 38.7165 30.4961 41.5626 36.2916 44.5995C38.1519 45.5694 40.6641 45.8715 43.1445 46.1338C48.4074 46.6824 53.8452 46.6585 55.0138 44.4325C55.951 48.2831 57.5662 51.9362 59.7838 55.2207C59.7838 55.2207 67.0501 60.3087 69.618 66.78C72.1858 73.2513 74.0143 82.7277 67.7895 92.9355C66.0475 95.8884 63.7401 98.4687 60.9995 100.529C58.2588 102.589 55.1388 104.088 51.818 104.94C51.818 104.94 51.341 103.771 43.4943 103.843C35.6477 103.914 34.0974 105.012 27.7692 100.615C27.7692 100.615 27.4035 98.6277 24.5177 95.7816C23.1852 94.3553 21.6695 93.1122 20.01 92.0848C20.01 92.0848 17.0606 85.5022 17.0606 84.3574C18.0666 82.9747 18.584 81.2966 18.5313 79.5874C18.4721 77.5984 17.846 75.6677 16.7267 74.0224C16.7267 74.0224 18.2292 67.6624 19.374 65.5954C20.5188 63.5284 23.6352 59.3547 23.6352 59.3547C23.6352 59.3547 17.6091 59.8317 15.9317 60.9447C14.2542 62.0577 5.59665 68.0997 4.80165 71.2797C4.49427 72.0599 4.22889 72.856 4.00665 73.6647C3.80092 74.8527 3.86486 76.0719 4.19374 77.2319C4.52262 78.3919 5.10804 79.4632 5.9067 80.3665C8.33145 82.9821 9.8181 83.6578 9.8181 83.6578C8.93925 87.0802 8.362 90.573 8.09295 94.0962C7.9419 98.413 9.58755 101.998 12.2429 103.565C14.568 104.816 16.9743 105.91 19.4456 106.84C19.4456 106.84 19.7954 110.942 21.3615 112.119C22.9277 113.295 30.4404 117.66 30.4404 117.66C29.9217 118.266 29.5745 119 29.4347 119.786C29.2949 120.571 29.3677 121.38 29.6454 122.128C30.6074 124.799 32.73 126.174 35.4489 127.303C38.1678 128.432 39.8453 128.893 41.6738 128.567C44.9473 127.666 48.0554 126.246 50.8799 124.362C53.8691 122.319 53.9247 120.117 53.9247 120.117C53.9247 120.117 70.0235 119.186 78.3153 118.749C86.6072 118.312 93.5872 117.374 94.4776 116.762C95.368 116.149 106.729 113.558 109.71 114.639Z" fill="#FFE8BB"/>
<path d="M114.862 112.429C114.351 112.429 113.851 112.58 113.426 112.864C113.001 113.148 112.67 113.552 112.475 114.024C112.279 114.496 112.228 115.015 112.327 115.517C112.427 116.018 112.673 116.478 113.035 116.839C113.396 117.201 113.856 117.447 114.358 117.547C114.859 117.646 115.378 117.595 115.85 117.4C116.322 117.204 116.726 116.873 117.01 116.448C117.294 116.023 117.445 115.523 117.445 115.012C117.445 114.327 117.173 113.67 116.689 113.185C116.204 112.701 115.547 112.429 114.862 112.429Z" fill="#0122AE"/>
<path d="M154.27 70.7071C154.151 65.4601 151.4 65.1977 151.265 65.1898C151.13 65.1818 144.213 64.9592 137.312 64.8002C123.114 64.4663 123.074 64.6889 123.002 65.0308C123.002 65.0864 123.002 65.3806 122.947 65.8973H113.685C112.93 65.8973 112.453 65.9927 112.095 67.1216C101.426 63.6713 100.838 52.9388 86.2417 46.1972C71.6455 39.4556 65.7943 24.5414 53.6467 30.8696C48.2963 33.6283 43.0811 34.3597 38.8915 34.9798C34.4315 35.6078 30.2578 35.9656 31.5695 40.1791C32.7461 43.9553 36.8165 45.5215 40.9267 46.1893C40.888 46.7186 40.888 47.25 40.9267 47.7793C40.927 47.8251 40.9398 47.87 40.9636 47.9092C40.9874 47.9484 41.0213 47.9804 41.0618 48.0019L41.674 48.3596V50.2994C34.5667 50.9434 29.1289 53.9246 24.184 58.7662C24.0091 58.9411 23.8262 59.1557 23.7308 59.1557C23.6354 59.1557 19.6127 59.6327 17.3708 60.0938C14.9858 60.5788 7.8308 66.7877 6.1454 68.6639C4.46348 70.6715 3.62816 73.2544 3.81605 75.8666C4.14995 79.5236 6.56675 81.9325 9.6593 83.8882C9.54005 84.23 6.86885 92.4026 8.2919 98.4685C9.389 103.199 14.6996 105.703 19.3742 107.102C19.3742 107.897 19.6604 111.443 22.0534 113.009C24.6736 114.781 27.3973 116.395 30.2101 117.843C29.7013 118.296 28.7075 119.592 29.4151 122.39C30.385 126.111 36.7847 128.448 39.8375 128.822C43.2481 129.235 53.758 124.703 54.1475 120.41C69.6103 119.29 87.5375 119.051 95.2013 116.825C103.199 114.504 108.478 114.798 109.511 114.885C109.964 118.431 110.616 119.162 111.205 119.25C112.326 119.425 120.61 119.345 121.754 119.337C121.858 126.953 122.168 129.092 122.605 129.402C122.851 129.585 124.274 129.664 126.946 129.664C130.754 129.664 150.207 129.108 151.909 129.06C152.918 129.06 154.874 128.265 155.089 125.435C155.82 111.999 154.365 74.8808 154.27 70.7071ZM41.4355 47.6521V46.237C43.1541 46.4693 44.8848 46.602 46.6189 46.6345V47.6044L45.8795 48.0337H42.1351L41.4355 47.6521ZM47.0005 48.0257C47.0396 48.0013 47.0718 47.9673 47.094 47.927C47.1163 47.8866 47.1279 47.8413 47.1277 47.7952V46.6504C47.5729 46.6504 49.2106 46.6504 49.5604 46.6981C51.4841 46.7846 53.3713 46.1527 54.8551 44.9252C55.6808 48.3608 57.0869 51.6301 59.0129 54.5924C55.1567 52.2797 50.8538 50.8111 46.3883 50.2835V48.3517L47.0005 48.0257ZM45.8477 48.5981V50.2756C44.6223 50.1881 43.3922 50.1881 42.1669 50.2756V48.5584L45.8477 48.5981ZM24.5417 59.1716C27.1885 56.5051 30.3039 54.3491 33.7319 52.8116C37.0503 51.4305 40.6077 50.7147 44.2021 50.7049C48.5709 50.8183 52.8562 51.9277 56.7313 53.9485C61.7229 56.3785 65.8027 60.3468 68.3701 65.2693C70.5086 69.2631 71.6718 73.7063 71.7647 78.2357C71.7452 84.2218 69.7841 90.04 66.1759 94.8165C62.5677 99.593 57.5073 103.07 51.7546 104.725L51.6751 104.765C48.6859 103.27 45.3151 103.477 42.31 103.684C39.13 103.906 35.8625 104.137 31.6729 102.754C30.3421 102.191 29.1059 101.427 28.0079 100.488C26.6405 96.5128 21.0437 92.498 20.4077 92.0528C19.0574 89.7371 18.0556 87.2352 17.4344 84.6275C17.4224 84.5768 17.3956 84.5309 17.3574 84.4955C17.3191 84.4601 17.2712 84.4369 17.2198 84.4288C18.168 83.1495 18.6832 81.601 18.6905 80.0086C18.7715 77.9712 18.1638 75.966 16.9654 74.3164C17.6385 68.5216 20.3257 63.1473 24.5576 59.1319L24.5417 59.1716ZM4.301 75.8666C4.11215 73.3787 4.90554 70.9157 6.5111 69.0058C8.435 66.9229 15.3038 61.0558 17.4503 60.6026C19.1914 60.2449 22.0295 59.8871 23.222 59.744C19.5786 63.5726 17.2337 68.4516 16.5202 73.6883C15.4438 72.2653 14.1633 71.0089 12.7201 69.9598C12.6631 69.9197 12.5926 69.9039 12.524 69.9158C12.4555 69.9278 12.3944 69.9665 12.3544 70.0234C12.3143 70.0803 12.2985 70.1508 12.3104 70.2194C12.3223 70.288 12.361 70.349 12.418 70.3891C12.4816 70.4368 18.5792 74.69 18.1976 79.9768C17.8955 84.2539 15.916 86.2255 11.9171 84.4924C11.2284 82.9802 10.9567 81.3113 11.1301 79.6588C11.2872 78.4605 11.5533 77.279 11.9251 76.129C11.95 76.0676 11.9507 75.999 11.9271 75.937C11.9035 75.8751 11.8573 75.8244 11.7979 75.7951C11.5276 75.6599 9.0869 74.4515 7.98185 75.0955C6.8768 75.7394 6.0341 78.7048 7.0835 81.2726C5.51907 79.8558 4.53371 77.9105 4.3169 75.811L4.301 75.8666ZM8.276 82.3697C7.78685 81.7151 7.44126 80.9646 7.26181 80.1674C7.08235 79.3701 7.07307 78.5439 7.23455 77.7428C7.28932 76.9035 7.65162 76.1138 8.25215 75.5248C8.912 75.1432 10.5577 75.7712 11.3527 76.1449C11.0261 77.2629 10.779 78.4026 10.6133 79.5554C10.4191 81.1018 10.6103 82.6721 11.1698 84.1267C10.1664 83.5999 9.20666 82.9938 8.29985 82.3141L8.276 82.3697ZM8.74505 98.3572C7.4492 92.7922 9.7706 85.1204 10.0727 84.1585C12.251 85.4464 15.0176 86.4481 16.8859 84.7309C17.519 87.4048 18.5479 89.9691 19.9387 92.339C19.9564 92.3751 19.984 92.4053 20.0182 92.4265C20.0977 92.4821 27.8489 97.8722 27.7297 102.213C27.6343 106.053 25.0505 107.834 21.9977 107.261C19.5412 104.781 22.0852 98.8262 22.109 98.7706C22.1254 98.7349 22.1335 98.6961 22.1328 98.6568C22.1322 98.6176 22.1227 98.579 22.1052 98.5439C22.0876 98.5089 22.0624 98.4781 22.0315 98.4541C22.0005 98.43 21.9645 98.4132 21.9262 98.4049C21.64 98.3413 14.8268 96.8149 13.8331 100.559C13.6235 101.301 13.6101 102.084 13.794 102.832C13.978 103.581 14.353 104.269 14.8825 104.828C12.1318 103.485 9.4844 101.426 8.74505 98.3572ZM16.6951 105.655C16.1863 105.377 13.5151 103.755 14.3101 100.718C15.1051 97.8722 20.1613 98.6354 21.4651 98.8819C20.9881 100.082 19.4378 104.51 21.1232 107.086C19.6208 106.695 18.1423 106.217 16.6951 105.655V105.655ZM22.2601 112.54C20.2964 111.252 19.9387 108.255 19.8751 107.269L21.4015 107.69C24.9472 108.644 28.1669 106.657 28.2862 102.253C28.2912 101.935 28.2645 101.619 28.2067 101.307C29.1902 102.131 30.302 102.789 31.498 103.254C39.122 105.775 43.9636 103.056 49.5047 104.526C52.2475 105.258 53.9488 106.713 54.4417 108.74C54.6587 109.866 54.5921 111.028 54.2479 112.121C53.9037 113.215 53.2927 114.206 52.4701 115.004C50.0851 117.191 41.3401 119.337 36.6178 119.337C32.5951 119.329 24.8518 114.249 22.2601 112.54ZM51.6751 121.714C49.8386 122.509 45.3151 124.099 44.1703 122.644C43.7466 122.15 43.4784 121.541 43.3992 120.895C43.32 120.249 43.4334 119.593 43.7251 119.011V118.932C45.7922 118.494 47.8187 117.882 49.783 117.103C49.9181 117.223 51.4604 117.477 51.6751 121.714ZM53.4956 120.919C52.9073 124.195 43.0334 128.71 39.8773 128.329C36.7211 127.947 30.7666 125.61 29.908 122.287C29.113 119.107 30.6394 118.169 30.703 118.129C32.8574 119.146 34.9721 119.894 36.5462 119.894C38.7498 119.834 40.943 119.567 43.097 119.099C42.8392 119.751 42.7651 120.461 42.8828 121.152C43.0006 121.843 43.3056 122.488 43.7648 123.018C45.2117 124.783 50.0056 123.098 52.0567 122.152C52.1041 122.13 52.1443 122.095 52.1725 122.052C52.2007 122.008 52.2157 121.957 52.2157 121.905C52.2157 121.73 52.0487 117.882 50.3951 116.865C51.6194 116.308 51.4286 116.284 51.5161 116.332C52.2936 116.777 52.9083 117.46 53.2702 118.279C53.6321 119.099 53.7222 120.013 53.5274 120.887L53.4956 120.919ZM95.0026 116.348C87.466 118.542 69.9521 118.789 54.1078 119.87C54.0917 119.103 53.8912 118.352 53.5231 117.679C53.1549 117.007 52.6301 116.433 51.9931 116.006C53.1383 115.191 54.0247 114.063 54.5463 112.758C55.0679 111.452 55.2027 110.024 54.9346 108.644C54.7476 107.913 54.4155 107.226 53.958 106.625C53.5005 106.024 52.9269 105.521 52.2713 105.146C58.232 103.339 63.4262 99.6086 67.0421 94.5371C70.6581 89.4655 72.4921 83.339 72.2576 77.1148C74.1179 81.8848 79.9135 94.414 90.0179 94.4776C90.0875 94.4776 90.1542 94.4499 90.2034 94.4007C90.2526 94.3515 90.2803 94.2848 90.2803 94.2152C90.2803 94.1457 90.2526 94.0789 90.2034 94.0297C90.1542 93.9805 90.0875 93.9529 90.0179 93.9529C77.9101 93.8098 72.1543 75.2863 72.0986 75.0955C71.5853 71.5791 70.4777 68.1757 68.8232 65.0308C66.7811 61.0891 63.7722 57.7301 60.0782 55.2682C60.0845 55.2317 60.0828 55.1944 60.0732 55.1587C60.0636 55.123 60.0463 55.0898 60.0226 55.0615C56.9062 51.0865 55.5149 45.4738 55.3003 44.5198C55.5319 44.296 55.7422 44.0512 55.9283 43.7884C55.9673 43.7304 55.9817 43.6593 55.9683 43.5907C55.9549 43.5221 55.9147 43.4617 55.8568 43.4227C55.828 43.4034 55.7958 43.3899 55.7619 43.383C55.728 43.3762 55.693 43.3761 55.6591 43.3827C55.5905 43.3961 55.5301 43.4362 55.4911 43.4942C54.7945 44.3803 53.8948 45.0857 52.868 45.5506C51.8412 46.0156 50.7176 46.2265 49.5922 46.1654C43.7171 45.9985 33.9784 46.0859 32.1022 39.9883C31.9341 39.6112 31.8526 39.2013 31.8637 38.7886C31.8747 38.3759 31.9779 37.9709 32.1658 37.6033C33.9625 34.7651 44.0908 36.4346 53.8534 31.3307C65.5876 25.2251 71.3434 39.9008 86.0032 46.6663C100.44 53.3363 101.06 64.1165 111.936 67.6225C111.602 68.9819 111.507 70.4368 110.99 74.9762C110.195 82.1312 108.804 94.1755 108.907 103.31C108.963 108.462 109.162 111.968 109.432 114.345C108.12 114.249 102.841 114.05 95.0344 116.316L95.0026 116.348ZM121.683 118.836C120.935 118.836 112.318 118.932 111.221 118.765C110.593 118.669 109.527 116.539 109.376 103.342C109.249 92.2118 111.324 76.7729 111.872 71.3669C112.373 66.4459 112.763 66.4459 113.629 66.4538H122.899C122.136 81.0898 121.516 101.76 121.715 118.805L121.683 118.836Z" fill="#0122AE"/>
<path d="M30.5279 97.6258C40.1871 103.906 52.0565 103.191 60.086 96.0358C67.5113 89.4294 69.3398 80.3107 66.8753 71.0808C64.3949 61.6044 54.0599 53.9326 42.4131 54.4414C41.2782 54.4793 40.1494 54.6257 39.0423 54.8787C26.2349 58.0348 17.3786 71.359 21.3377 84.9774C22.7241 90.1885 26.0001 94.6972 30.5279 97.6258V97.6258ZM39.1695 55.3875C40.605 55.0716 42.0725 54.9248 43.542 54.9502C54.6323 54.9502 64.0848 62.455 66.3665 71.1921C68.7992 80.3028 66.9786 89.167 59.7282 95.6145C51.8259 102.658 40.211 103.286 30.8141 97.2045C26.3927 94.3466 23.1932 89.9455 21.8385 84.8581C18.0305 71.7168 26.378 58.5516 39.1695 55.3875Z" fill="#0122AE"/>
<path d="M62.6061 87.9982C64.4664 85.1521 64.7288 81.6382 64.7208 78.2356C64.6967 72.7689 62.5169 67.5324 58.655 63.6633C58.6406 63.6252 58.6183 63.5906 58.5895 63.5618C58.5607 63.533 58.5261 63.5107 58.488 63.4963C57.1001 62.1387 55.5163 60.9971 53.7896 60.1096C50.8097 58.5208 47.512 57.619 44.1383 57.4702C40.8005 57.5886 37.5209 58.3781 34.4949 59.7916C30.5199 61.4611 28.1349 64.5616 26.2349 67.3918C23.5319 71.4702 22.5938 77.1226 23.7227 82.4968C27.2684 99.4383 50.546 106.53 62.6061 87.9982ZM26.6801 67.686C27.5164 66.3849 28.4605 65.1563 29.5023 64.0131L31.3388 65.8495C31.3883 65.8991 31.4555 65.9269 31.5256 65.9269C31.5957 65.9269 31.6629 65.8991 31.7124 65.8495C31.762 65.8 31.7898 65.7328 31.7898 65.6627C31.7898 65.5926 31.762 65.5254 31.7124 65.4759L29.868 63.5997C31.2404 62.1715 32.8836 61.031 34.7016 60.2448C37.5438 58.9478 40.605 58.198 43.7249 58.0347V60.523C43.7249 60.5926 43.7525 60.6593 43.8017 60.7085C43.8509 60.7577 43.9176 60.7854 43.9872 60.7854C44.0568 60.7854 44.1235 60.7577 44.1727 60.7085C44.2219 60.6593 44.2496 60.5926 44.2496 60.523V58.0347C49.3704 58.2885 54.2437 60.3148 58.0349 63.7666L56.3177 65.4759C56.2826 65.514 56.2592 65.5614 56.2503 65.6124C56.2414 65.6635 56.2474 65.716 56.2675 65.7637C56.2876 65.8115 56.321 65.8524 56.3637 65.8817C56.4064 65.911 56.4567 65.9275 56.5085 65.929C56.6595 65.929 56.5085 66.0006 58.4085 64.1403C62.0203 67.8252 64.0879 72.7508 64.1882 77.9097H61.6521C61.5894 77.9205 61.5325 77.9532 61.4915 78.002C61.4505 78.0507 61.428 78.1123 61.428 78.176C61.428 78.2397 61.4505 78.3013 61.4915 78.35C61.5325 78.3988 61.5894 78.4314 61.6521 78.4423H64.1961C64.1961 81.6939 63.9179 85.0567 62.1689 87.7438C61.1087 89.3876 59.8776 90.9146 58.496 92.2992L56.6675 90.4707C56.6179 90.4211 56.5507 90.3933 56.4806 90.3933C56.4106 90.3933 56.3434 90.4211 56.2938 90.4707C56.2443 90.5202 56.2164 90.5874 56.2164 90.6575C56.2164 90.7276 56.2443 90.7948 56.2938 90.8443L58.1223 92.6649C54.4219 96.3079 49.4577 98.3813 44.2655 98.4525V95.829C44.2655 95.7594 44.2378 95.6927 44.1886 95.6435C44.1394 95.5943 44.0727 95.5666 44.0031 95.5666C43.9335 95.5666 43.8668 95.5943 43.8176 95.6435C43.7684 95.6927 43.7408 95.7594 43.7408 95.829V98.4525C38.5531 98.3518 33.5962 96.2895 29.868 92.6808L31.7124 90.8443C31.762 90.7948 31.7898 90.7276 31.7898 90.6575C31.7898 90.5874 31.762 90.5202 31.7124 90.4707C31.6629 90.4211 31.5957 90.3933 31.5256 90.3933C31.4555 90.3933 31.3883 90.4211 31.3388 90.4707L29.4944 92.3071C25.8855 88.5876 23.8423 83.6246 23.7863 78.4423H26.3541C26.4169 78.4314 26.4737 78.3988 26.5147 78.35C26.5557 78.3013 26.5782 78.2397 26.5782 78.176C26.5782 78.1123 26.5557 78.0507 26.5147 78.002C26.4737 77.9532 26.4169 77.9205 26.3541 77.9097H23.7863C23.741 74.2935 24.7463 70.742 26.6801 67.686Z" fill="#0122AE"/>
<path d="M62.05 71.2159C62.025 71.1501 61.9753 71.0967 61.9114 71.067C61.8476 71.0373 61.7747 71.0337 61.7082 71.0569L56.5804 72.9888C54.267 67.4953 48.4237 63.7111 42.334 64.7605C39.8724 65.1169 37.5505 66.1242 35.6083 67.6782C34.0603 68.9585 32.8088 70.5598 31.9404 72.3713C31.0719 74.1828 30.6073 76.1613 30.5786 78.17C30.5498 80.1787 30.9577 82.1697 31.774 84.0053C32.5903 85.8408 33.7955 87.4773 35.3062 88.8013C37.1188 90.3913 39.9967 91.1863 41.1574 91.4248C45.5856 92.2993 49.9024 91.234 52.669 88.9206C54.8479 87.0742 56.4096 84.6053 57.1443 81.8455C57.879 79.0856 57.7516 76.167 56.7792 73.4817L61.899 71.5498C61.9312 71.5384 61.9608 71.5205 61.986 71.4974C62.0112 71.4742 62.0314 71.4462 62.0455 71.415C62.0596 71.3838 62.0673 71.3501 62.0681 71.3159C62.0688 71.2817 62.0627 71.2477 62.05 71.2159V71.2159ZM57.0972 77.9098H55.3323C55.2696 77.9207 55.2127 77.9534 55.1717 78.0021C55.1307 78.0509 55.1082 78.1125 55.1082 78.1762C55.1082 78.2398 55.1307 78.3015 55.1717 78.3502C55.2127 78.3989 55.2696 78.4316 55.3323 78.4425H57.1051C57.0408 81.7746 55.7631 84.9687 53.5117 87.426C53.5117 87.267 53.5117 87.3147 52.2 86.0029C52.1763 85.9784 52.1479 85.9589 52.1164 85.9456C52.085 85.9323 52.0513 85.9254 52.0171 85.9254C51.983 85.9254 51.9493 85.9323 51.9178 85.9456C51.8864 85.9589 51.858 85.9784 51.8343 86.0029C51.8095 86.0274 51.7899 86.0564 51.7765 86.0885C51.763 86.1206 51.7561 86.155 51.7561 86.1898C51.7561 86.2245 51.763 86.259 51.7765 86.291C51.7899 86.3231 51.8095 86.3522 51.8343 86.3766C53.1778 87.7201 53.0983 87.6963 53.2653 87.6883C52.0761 88.8477 50.6677 89.7584 49.1225 90.3672C47.5773 90.976 45.9263 91.2707 44.2659 91.234V89.5089C44.2659 89.4744 44.2591 89.4403 44.2459 89.4085C44.2327 89.3767 44.2134 89.3477 44.1891 89.3234C44.1647 89.299 44.1358 89.2797 44.1039 89.2665C44.0721 89.2533 44.038 89.2465 44.0035 89.2465C43.9691 89.2465 43.935 89.2533 43.9031 89.2665C43.8713 89.2797 43.8424 89.299 43.818 89.3234C43.7937 89.3477 43.7743 89.3767 43.7612 89.4085C43.748 89.4403 43.7412 89.4744 43.7412 89.5089V91.2261C40.8213 91.1605 37.9948 90.185 35.656 88.4356C35.3857 88.1892 35.1154 87.9268 34.861 87.6406C35.3231 87.2374 35.7612 86.8074 36.1728 86.3527C36.2209 86.3024 36.2478 86.2355 36.2478 86.1659C36.2478 86.0963 36.2209 86.0294 36.1728 85.9791C36.1484 85.9543 36.1193 85.9347 36.0872 85.9213C36.0552 85.9078 36.0207 85.9009 35.986 85.9009C35.9512 85.9009 35.9168 85.9078 35.8847 85.9213C35.8526 85.9347 35.8236 85.9543 35.7991 85.9791C34.6543 87.1239 34.5669 87.1954 34.5192 87.2749C32.3636 84.8222 31.1493 81.6835 31.0927 78.4186H32.6827C32.7455 78.4078 32.8024 78.3751 32.8434 78.3264C32.8844 78.2776 32.9069 78.216 32.9069 78.1523C32.9069 78.0886 32.8844 78.027 32.8434 77.9783C32.8024 77.9296 32.7455 77.8969 32.6827 77.886H31.0927C31.2613 74.6783 32.5498 71.6315 34.7338 69.2761L35.7753 70.3176C35.799 70.3421 35.8274 70.3616 35.8588 70.3749C35.8903 70.3883 35.924 70.3951 35.9581 70.3951C35.9923 70.3951 36.026 70.3883 36.0574 70.3749C36.0889 70.3616 36.1173 70.3421 36.141 70.3176C36.1658 70.2932 36.1854 70.2641 36.1988 70.232C36.2122 70.2 36.2192 70.1655 36.2192 70.1308C36.2192 70.096 36.2122 70.0616 36.1988 70.0295C36.1854 69.9974 36.1658 69.9684 36.141 69.9439L35.0757 68.8786C37.035 66.8883 39.6098 65.6191 42.3817 65.2773C42.8266 65.2048 43.2751 65.157 43.7253 65.1342V66.7798C43.7253 66.8494 43.7529 66.9162 43.8021 66.9654C43.8513 67.0146 43.9181 67.0422 43.9876 67.0422C44.0572 67.0422 44.124 67.0146 44.1732 66.9654C44.2224 66.9162 44.25 66.8494 44.25 66.7798V65.1103C47.528 65.1308 50.6675 66.4351 52.995 68.7435L51.8343 69.9598C51.8095 69.9843 51.7899 70.0133 51.7765 70.0454C51.763 70.0775 51.7561 70.1119 51.7561 70.1467C51.7561 70.1814 51.763 70.2159 51.7765 70.2479C51.7899 70.28 51.8095 70.3091 51.8343 70.3335C51.858 70.358 51.8864 70.3775 51.9178 70.3908C51.9493 70.4042 51.983 70.411 52.0171 70.411C52.0513 70.411 52.085 70.4042 52.1164 70.3908C52.1479 70.3775 52.1763 70.358 52.2 70.3335L53.4084 69.133C54.5424 70.3119 55.4505 71.6889 56.0875 73.1955L45.6253 77.1148C45.4077 76.7269 45.0583 76.4297 44.6404 76.2773C44.2225 76.1248 43.7638 76.1272 43.3475 76.2839C42.9311 76.4406 42.5848 76.7413 42.3711 77.1315C42.1575 77.5217 42.0907 77.9755 42.183 78.4107L34.9008 81.1534C34.7339 80.86 34.4638 80.6392 34.143 80.5339C33.8222 80.4286 33.4738 80.4465 33.1655 80.584C32.8571 80.7215 32.611 80.9688 32.475 81.2777C32.3389 81.5867 32.3227 81.9352 32.4294 82.2555C32.5362 82.5757 32.7583 82.8448 33.0525 83.0104C33.3467 83.1759 33.692 83.2261 34.0212 83.1511C34.3503 83.0761 34.6398 82.8813 34.8332 82.6046C35.0267 82.3279 35.1103 81.9892 35.0677 81.6543L42.3658 78.9036C42.5799 79.2986 42.9296 79.6029 43.3505 79.7601C43.7714 79.9173 44.235 79.9169 44.6556 79.759C45.0762 79.601 45.4254 79.2961 45.6388 78.9007C45.8521 78.5053 45.9151 78.046 45.8161 77.6077L56.2863 73.6327C56.8004 75.0013 57.0747 76.4481 57.0972 77.9098Z" fill="#0122AE"/>
<path d="M41.968 114.774C44.6551 116.054 49.3138 115.036 52.0724 113.979C52.1134 113.962 52.1498 113.936 52.1783 113.903C52.2068 113.869 52.2266 113.829 52.2361 113.786C52.2455 113.742 52.2442 113.698 52.2323 113.655C52.2204 113.613 52.1982 113.574 52.1678 113.542C51.4674 112.643 50.9611 111.609 50.6812 110.505C50.194 108.851 49.8822 107.151 49.751 105.433C49.7482 105.396 49.7377 105.359 49.7202 105.327C49.7028 105.294 49.6788 105.265 49.6497 105.242C49.6206 105.219 49.5871 105.202 49.5511 105.192C49.5152 105.183 49.4777 105.181 49.441 105.186C49.1468 105.234 42.1826 106.387 40.2349 109.59C39.9659 110.017 39.7981 110.5 39.7444 111.001C39.6907 111.503 39.7524 112.01 39.9248 112.484C40.0853 112.988 40.3501 113.452 40.7022 113.847C41.0543 114.241 41.4856 114.557 41.968 114.774ZM49.2422 105.735C49.4569 108.12 50.1644 111.689 51.5398 113.613C47.8112 114.885 41.6579 116.046 40.4098 112.301C39.1616 108.557 45.3547 106.482 49.2422 105.735Z" fill="#0122AE"/>
</svg>
